<mxfile host="Electron" agent="Mozilla/5.0 (Windows NT 10.0; Win64; x64) AppleWebKit/537.36 (KHTML, like Gecko) draw.io/26.1.1 Chrome/132.0.6834.210 Electron/34.3.3 Safari/537.36" version="26.1.1">
  <diagram name="Page-1" id="5f0bae14-7c28-e335-631c-24af17079c00">
    <mxGraphModel dx="1934" dy="937" grid="1" gridSize="10" guides="1" tooltips="1" connect="1" arrows="1" fold="1" page="1" pageScale="1" pageWidth="1100" pageHeight="850" background="none" math="0" shadow="0">
      <root>
        <mxCell id="0" />
        <mxCell id="1" parent="0" />
        <mxCell id="39150e848f15840c-1" value="Products" style="verticalAlign=top;align=left;spacingTop=8;spacingLeft=2;spacingRight=12;shape=cube;size=10;direction=south;fontStyle=4;html=1;rounded=0;shadow=0;comic=0;labelBackgroundColor=none;strokeWidth=1;fontFamily=Verdana;fontSize=12" parent="1" vertex="1">
          <mxGeometry x="40" y="40" width="380" height="480" as="geometry" />
        </mxCell>
        <mxCell id="39150e848f15840c-5" value="Product&lt;div&gt;Management&lt;/div&gt;" style="shape=component;align=left;spacingLeft=36;rounded=0;shadow=0;comic=0;labelBackgroundColor=none;strokeWidth=1;fontFamily=Verdana;fontSize=12;html=1;" parent="1" vertex="1">
          <mxGeometry x="60" y="90" width="130" height="60" as="geometry" />
        </mxCell>
        <mxCell id="perrteJ1TjG_YHbP8VM2-1" value="&amp;nbsp;Details" style="shape=component;align=left;spacingLeft=36;rounded=0;shadow=0;comic=0;labelBackgroundColor=none;strokeWidth=1;fontFamily=Verdana;fontSize=12;html=1;" vertex="1" parent="1">
          <mxGeometry x="55" y="170" width="140" height="60" as="geometry" />
        </mxCell>
        <mxCell id="perrteJ1TjG_YHbP8VM2-2" value="Pricing &amp;amp; Discounts" style="shape=component;align=left;spacingLeft=36;rounded=0;shadow=0;comic=0;labelBackgroundColor=none;strokeWidth=1;fontFamily=Verdana;fontSize=12;html=1;" vertex="1" parent="1">
          <mxGeometry x="240" y="250" width="160" height="60" as="geometry" />
        </mxCell>
        <mxCell id="perrteJ1TjG_YHbP8VM2-4" value="&amp;nbsp;&lt;span style=&quot;background-color: transparent; color: light-dark(rgb(0, 0, 0), rgb(255, 255, 255));&quot;&gt;Categorization&lt;/span&gt;" style="shape=component;align=left;spacingLeft=36;rounded=0;shadow=0;comic=0;labelBackgroundColor=none;strokeWidth=1;fontFamily=Verdana;fontSize=12;html=1;" vertex="1" parent="1">
          <mxGeometry x="60" y="250" width="140" height="60" as="geometry" />
        </mxCell>
        <mxCell id="perrteJ1TjG_YHbP8VM2-5" value="&amp;nbsp;Media" style="shape=component;align=left;spacingLeft=36;rounded=0;shadow=0;comic=0;labelBackgroundColor=none;strokeWidth=1;fontFamily=Verdana;fontSize=12;html=1;" vertex="1" parent="1">
          <mxGeometry x="260" y="170" width="140" height="60" as="geometry" />
        </mxCell>
        <mxCell id="perrteJ1TjG_YHbP8VM2-6" value="Product Reviews&lt;div&gt;&amp;amp; Ratings&lt;/div&gt;" style="shape=component;align=left;spacingLeft=36;rounded=0;shadow=0;comic=0;labelBackgroundColor=none;strokeWidth=1;fontFamily=Verdana;fontSize=12;html=1;" vertex="1" parent="1">
          <mxGeometry x="60" y="340" width="140" height="60" as="geometry" />
        </mxCell>
        <mxCell id="perrteJ1TjG_YHbP8VM2-8" value="SEO and Metadata" style="shape=component;align=left;spacingLeft=36;rounded=0;shadow=0;comic=0;labelBackgroundColor=none;strokeWidth=1;fontFamily=Verdana;fontSize=12;html=1;" vertex="1" parent="1">
          <mxGeometry x="240" y="340" width="160" height="60" as="geometry" />
        </mxCell>
        <mxCell id="perrteJ1TjG_YHbP8VM2-9" value="Search &amp;amp; Filtering" style="shape=component;align=left;spacingLeft=36;rounded=0;shadow=0;comic=0;labelBackgroundColor=none;strokeWidth=1;fontFamily=Verdana;fontSize=12;html=1;" vertex="1" parent="1">
          <mxGeometry x="240" y="90" width="160" height="60" as="geometry" />
        </mxCell>
        <mxCell id="perrteJ1TjG_YHbP8VM2-10" value="Shipping &amp;amp;&lt;div&gt;Logistics&lt;/div&gt;" style="shape=component;align=left;spacingLeft=36;rounded=0;shadow=0;comic=0;labelBackgroundColor=none;strokeWidth=1;fontFamily=Verdana;fontSize=12;html=1;" vertex="1" parent="1">
          <mxGeometry x="60" y="430" width="140" height="60" as="geometry" />
        </mxCell>
        <mxCell id="perrteJ1TjG_YHbP8VM2-11" value="Admin Pannel" style="shape=component;align=left;spacingLeft=36;rounded=0;shadow=0;comic=0;labelBackgroundColor=none;strokeWidth=1;fontFamily=Verdana;fontSize=12;html=1;" vertex="1" parent="1">
          <mxGeometry x="265" y="430" width="130" height="60" as="geometry" />
        </mxCell>
        <mxCell id="perrteJ1TjG_YHbP8VM2-12" value="Carts" style="verticalAlign=top;align=left;spacingTop=8;spacingLeft=2;spacingRight=12;shape=cube;size=10;direction=south;fontStyle=4;html=1;rounded=0;shadow=0;comic=0;labelBackgroundColor=none;strokeWidth=1;fontFamily=Verdana;fontSize=12" vertex="1" parent="1">
          <mxGeometry x="700" y="40" width="380" height="410" as="geometry" />
        </mxCell>
        <mxCell id="perrteJ1TjG_YHbP8VM2-13" value="Cart&lt;div&gt;Management&lt;/div&gt;" style="shape=component;align=left;spacingLeft=36;rounded=0;shadow=0;comic=0;labelBackgroundColor=none;strokeWidth=1;fontFamily=Verdana;fontSize=12;html=1;" vertex="1" parent="1">
          <mxGeometry x="720" y="90" width="130" height="60" as="geometry" />
        </mxCell>
        <mxCell id="perrteJ1TjG_YHbP8VM2-14" value="&lt;b&gt;Utium/Store Component Diagram LVL1:&lt;/b&gt;" style="text;html=1;align=center;verticalAlign=middle;resizable=0;points=[];autosize=1;strokeColor=none;fillColor=none;" vertex="1" parent="1">
          <mxGeometry width="250" height="30" as="geometry" />
        </mxCell>
        <mxCell id="perrteJ1TjG_YHbP8VM2-16" value="Product Handling" style="shape=component;align=left;spacingLeft=36;rounded=0;shadow=0;comic=0;labelBackgroundColor=none;strokeWidth=1;fontFamily=Verdana;fontSize=12;html=1;" vertex="1" parent="1">
          <mxGeometry x="900" y="90" width="150" height="60" as="geometry" />
        </mxCell>
        <mxCell id="perrteJ1TjG_YHbP8VM2-17" value="Cart Pricing &amp;amp;&amp;nbsp;&lt;div&gt;Discounts&lt;/div&gt;" style="shape=component;align=left;spacingLeft=36;rounded=0;shadow=0;comic=0;labelBackgroundColor=none;strokeWidth=1;fontFamily=Verdana;fontSize=12;html=1;" vertex="1" parent="1">
          <mxGeometry x="720" y="180" width="150" height="60" as="geometry" />
        </mxCell>
        <mxCell id="perrteJ1TjG_YHbP8VM2-18" value="User Interaction" style="shape=component;align=left;spacingLeft=36;rounded=0;shadow=0;comic=0;labelBackgroundColor=none;strokeWidth=1;fontFamily=Verdana;fontSize=12;html=1;" vertex="1" parent="1">
          <mxGeometry x="900" y="180" width="150" height="60" as="geometry" />
        </mxCell>
        <mxCell id="perrteJ1TjG_YHbP8VM2-19" value="Session &amp;amp;&amp;nbsp;&lt;div&gt;Persistance&lt;/div&gt;" style="shape=component;align=left;spacingLeft=36;rounded=0;shadow=0;comic=0;labelBackgroundColor=none;strokeWidth=1;fontFamily=Verdana;fontSize=12;html=1;" vertex="1" parent="1">
          <mxGeometry x="720" y="270" width="150" height="60" as="geometry" />
        </mxCell>
        <mxCell id="perrteJ1TjG_YHbP8VM2-20" value="Checkout&amp;nbsp;&lt;div&gt;Integration&lt;/div&gt;" style="shape=component;align=left;spacingLeft=36;rounded=0;shadow=0;comic=0;labelBackgroundColor=none;strokeWidth=1;fontFamily=Verdana;fontSize=12;html=1;" vertex="1" parent="1">
          <mxGeometry x="900" y="270" width="150" height="60" as="geometry" />
        </mxCell>
        <mxCell id="perrteJ1TjG_YHbP8VM2-21" value="Admin &amp;amp; Analytics" style="shape=component;align=left;spacingLeft=36;rounded=0;shadow=0;comic=0;labelBackgroundColor=none;strokeWidth=1;fontFamily=Verdana;fontSize=12;html=1;" vertex="1" parent="1">
          <mxGeometry x="720" y="360" width="150" height="60" as="geometry" />
        </mxCell>
        <mxCell id="perrteJ1TjG_YHbP8VM2-22" value="Discounts" style="verticalAlign=top;align=left;spacingTop=8;spacingLeft=2;spacingRight=12;shape=cube;size=10;direction=south;fontStyle=4;html=1;rounded=0;shadow=0;comic=0;labelBackgroundColor=none;strokeWidth=1;fontFamily=Verdana;fontSize=12" vertex="1" parent="1">
          <mxGeometry x="40" y="710" width="380" height="330" as="geometry" />
        </mxCell>
        <mxCell id="perrteJ1TjG_YHbP8VM2-23" value="Discount Types" style="shape=component;align=left;spacingLeft=36;rounded=0;shadow=0;comic=0;labelBackgroundColor=none;strokeWidth=1;fontFamily=Verdana;fontSize=12;html=1;" vertex="1" parent="1">
          <mxGeometry x="60" y="760" width="140" height="60" as="geometry" />
        </mxCell>
        <mxCell id="perrteJ1TjG_YHbP8VM2-24" value="Discount&amp;nbsp;&lt;div&gt;Application&amp;nbsp;&lt;/div&gt;&lt;div&gt;Rules&lt;/div&gt;" style="shape=component;align=left;spacingLeft=36;rounded=0;shadow=0;comic=0;labelBackgroundColor=none;strokeWidth=1;fontFamily=Verdana;fontSize=12;html=1;" vertex="1" parent="1">
          <mxGeometry x="250" y="940" width="140" height="60" as="geometry" />
        </mxCell>
        <mxCell id="perrteJ1TjG_YHbP8VM2-25" value="Coupon Codes" style="shape=component;align=left;spacingLeft=36;rounded=0;shadow=0;comic=0;labelBackgroundColor=none;strokeWidth=1;fontFamily=Verdana;fontSize=12;html=1;" vertex="1" parent="1">
          <mxGeometry x="60" y="850" width="140" height="60" as="geometry" />
        </mxCell>
        <mxCell id="perrteJ1TjG_YHbP8VM2-26" value="Auto Discounts" style="shape=component;align=left;spacingLeft=36;rounded=0;shadow=0;comic=0;labelBackgroundColor=none;strokeWidth=1;fontFamily=Verdana;fontSize=12;html=1;" vertex="1" parent="1">
          <mxGeometry x="250" y="850" width="140" height="60" as="geometry" />
        </mxCell>
        <mxCell id="perrteJ1TjG_YHbP8VM2-27" value="Discount&lt;div&gt;Calculation &amp;amp;&lt;/div&gt;&lt;div&gt;Validation&lt;/div&gt;" style="shape=component;align=left;spacingLeft=36;rounded=0;shadow=0;comic=0;labelBackgroundColor=none;strokeWidth=1;fontFamily=Verdana;fontSize=12;html=1;" vertex="1" parent="1">
          <mxGeometry x="60" y="940" width="140" height="60" as="geometry" />
        </mxCell>
        <mxCell id="perrteJ1TjG_YHbP8VM2-28" value="Admin/Analytics" style="shape=component;align=left;spacingLeft=36;rounded=0;shadow=0;comic=0;labelBackgroundColor=none;strokeWidth=1;fontFamily=Verdana;fontSize=12;html=1;" vertex="1" parent="1">
          <mxGeometry x="250" y="760" width="140" height="60" as="geometry" />
        </mxCell>
        <mxCell id="perrteJ1TjG_YHbP8VM2-29" value="Order Processing" style="verticalAlign=top;align=left;spacingTop=8;spacingLeft=2;spacingRight=12;shape=cube;size=10;direction=south;fontStyle=4;html=1;rounded=0;shadow=0;comic=0;labelBackgroundColor=none;strokeWidth=1;fontFamily=Verdana;fontSize=12" vertex="1" parent="1">
          <mxGeometry x="730" y="640" width="350" height="400" as="geometry" />
        </mxCell>
        <mxCell id="perrteJ1TjG_YHbP8VM2-30" value="Order&lt;br&gt;&lt;div&gt;Management&lt;/div&gt;" style="shape=component;align=left;spacingLeft=36;rounded=0;shadow=0;comic=0;labelBackgroundColor=none;strokeWidth=1;fontFamily=Verdana;fontSize=12;html=1;" vertex="1" parent="1">
          <mxGeometry x="760" y="690" width="130" height="60" as="geometry" />
        </mxCell>
        <mxCell id="perrteJ1TjG_YHbP8VM2-31" value="Order&amp;nbsp;&lt;span style=&quot;background-color: transparent; color: light-dark(rgb(0, 0, 0), rgb(255, 255, 255));&quot;&gt;Items&lt;/span&gt;" style="shape=component;align=left;spacingLeft=36;rounded=0;shadow=0;comic=0;labelBackgroundColor=none;strokeWidth=1;fontFamily=Verdana;fontSize=12;html=1;" vertex="1" parent="1">
          <mxGeometry x="930" y="690" width="130" height="60" as="geometry" />
        </mxCell>
        <mxCell id="perrteJ1TjG_YHbP8VM2-32" value="Pyment&amp;nbsp;&lt;div&gt;Processing&lt;/div&gt;" style="shape=component;align=left;spacingLeft=36;rounded=0;shadow=0;comic=0;labelBackgroundColor=none;strokeWidth=1;fontFamily=Verdana;fontSize=12;html=1;" vertex="1" parent="1">
          <mxGeometry x="760" y="775" width="130" height="60" as="geometry" />
        </mxCell>
        <mxCell id="perrteJ1TjG_YHbP8VM2-33" value="Shipping &amp;amp;&lt;div&gt;Delivery&lt;/div&gt;" style="shape=component;align=left;spacingLeft=36;rounded=0;shadow=0;comic=0;labelBackgroundColor=none;strokeWidth=1;fontFamily=Verdana;fontSize=12;html=1;" vertex="1" parent="1">
          <mxGeometry x="930" y="775" width="130" height="60" as="geometry" />
        </mxCell>
        <mxCell id="perrteJ1TjG_YHbP8VM2-34" value="Order&lt;div&gt;Notifications&lt;/div&gt;" style="shape=component;align=left;spacingLeft=36;rounded=0;shadow=0;comic=0;labelBackgroundColor=none;strokeWidth=1;fontFamily=Verdana;fontSize=12;html=1;" vertex="1" parent="1">
          <mxGeometry x="760" y="860" width="130" height="60" as="geometry" />
        </mxCell>
        <mxCell id="perrteJ1TjG_YHbP8VM2-35" value="Order&lt;div&gt;Modifications &amp;amp;&lt;/div&gt;&lt;div&gt;Cancellations&lt;/div&gt;" style="shape=component;align=left;spacingLeft=36;rounded=0;shadow=0;comic=0;labelBackgroundColor=none;strokeWidth=1;fontFamily=Verdana;fontSize=12;html=1;" vertex="1" parent="1">
          <mxGeometry x="920" y="860" width="140" height="60" as="geometry" />
        </mxCell>
        <mxCell id="perrteJ1TjG_YHbP8VM2-36" value="Admin &amp;amp; Analyticas" style="shape=component;align=left;spacingLeft=36;rounded=0;shadow=0;comic=0;labelBackgroundColor=none;strokeWidth=1;fontFamily=Verdana;fontSize=12;html=1;" vertex="1" parent="1">
          <mxGeometry x="825" y="950" width="160" height="60" as="geometry" />
        </mxCell>
        <mxCell id="perrteJ1TjG_YHbP8VM2-37" value="Management/&lt;div&gt;Reports&lt;/div&gt;&lt;div&gt;(LVL 1)&lt;/div&gt;" style="ellipse;whiteSpace=wrap;html=1;aspect=fixed;" vertex="1" parent="1">
          <mxGeometry x="480" y="520" width="160" height="160" as="geometry" />
        </mxCell>
        <mxCell id="perrteJ1TjG_YHbP8VM2-38" value="" style="rounded=0;orthogonalLoop=1;jettySize=auto;html=1;endArrow=halfCircle;endFill=0;endSize=6;strokeWidth=1;sketch=0;" edge="1" parent="1">
          <mxGeometry relative="1" as="geometry">
            <mxPoint x="990" y="90" as="sourcePoint" />
            <mxPoint x="480" y="80" as="targetPoint" />
            <Array as="points">
              <mxPoint x="990" y="80" />
              <mxPoint x="785" y="80" />
            </Array>
          </mxGeometry>
        </mxCell>
        <mxCell id="perrteJ1TjG_YHbP8VM2-39" value="" style="rounded=0;orthogonalLoop=1;jettySize=auto;html=1;endArrow=oval;endFill=0;sketch=0;sourcePerimeterSpacing=0;targetPerimeterSpacing=0;endSize=10;" edge="1" parent="1">
          <mxGeometry relative="1" as="geometry">
            <mxPoint x="421" y="80" as="sourcePoint" />
            <mxPoint x="480" y="80" as="targetPoint" />
          </mxGeometry>
        </mxCell>
        <mxCell id="perrteJ1TjG_YHbP8VM2-40" value="" style="ellipse;whiteSpace=wrap;html=1;align=center;aspect=fixed;fillColor=none;strokeColor=none;resizable=0;perimeter=centerPerimeter;rotatable=0;allowArrows=0;points=[];outlineConnect=1;" vertex="1" parent="1">
          <mxGeometry x="535" y="290" width="10" height="10" as="geometry" />
        </mxCell>
        <mxCell id="perrteJ1TjG_YHbP8VM2-41" value="" style="rounded=0;orthogonalLoop=1;jettySize=auto;html=1;endArrow=halfCircle;endFill=0;endSize=6;strokeWidth=1;sketch=0;" edge="1" target="perrteJ1TjG_YHbP8VM2-43" parent="1">
          <mxGeometry relative="1" as="geometry">
            <mxPoint x="800" y="420" as="sourcePoint" />
            <Array as="points">
              <mxPoint x="800" y="480" />
              <mxPoint x="800" y="525" />
              <mxPoint x="680" y="525" />
            </Array>
          </mxGeometry>
        </mxCell>
        <mxCell id="perrteJ1TjG_YHbP8VM2-42" value="" style="rounded=0;orthogonalLoop=1;jettySize=auto;html=1;endArrow=oval;endFill=0;sketch=0;sourcePerimeterSpacing=0;targetPerimeterSpacing=0;endSize=10;exitX=1;exitY=0;exitDx=0;exitDy=0;entryX=0.6;entryY=0.5;entryDx=0;entryDy=0;entryPerimeter=0;" edge="1" target="perrteJ1TjG_YHbP8VM2-43" parent="1" source="perrteJ1TjG_YHbP8VM2-37">
          <mxGeometry relative="1" as="geometry">
            <mxPoint x="520" y="495" as="sourcePoint" />
            <mxPoint x="680" y="520" as="targetPoint" />
          </mxGeometry>
        </mxCell>
        <mxCell id="perrteJ1TjG_YHbP8VM2-43" value="" style="ellipse;whiteSpace=wrap;html=1;align=center;aspect=fixed;fillColor=none;strokeColor=none;resizable=0;perimeter=centerPerimeter;rotatable=0;allowArrows=0;points=[];outlineConnect=1;" vertex="1" parent="1">
          <mxGeometry x="640" y="520" width="10" height="10" as="geometry" />
        </mxCell>
        <mxCell id="perrteJ1TjG_YHbP8VM2-44" value="" style="rounded=0;orthogonalLoop=1;jettySize=auto;html=1;endArrow=halfCircle;endFill=0;endSize=6;strokeWidth=1;sketch=0;exitX=0;exitY=0.3;exitDx=0;exitDy=0;" edge="1" parent="1" source="perrteJ1TjG_YHbP8VM2-36">
          <mxGeometry relative="1" as="geometry">
            <mxPoint x="750" y="735" as="sourcePoint" />
            <mxPoint x="560" y="720" as="targetPoint" />
            <Array as="points">
              <mxPoint x="560" y="970" />
            </Array>
          </mxGeometry>
        </mxCell>
        <mxCell id="perrteJ1TjG_YHbP8VM2-45" value="" style="rounded=0;orthogonalLoop=1;jettySize=auto;html=1;endArrow=oval;endFill=0;sketch=0;sourcePerimeterSpacing=0;targetPerimeterSpacing=0;endSize=10;exitX=0.5;exitY=1;exitDx=0;exitDy=0;" edge="1" parent="1" source="perrteJ1TjG_YHbP8VM2-37">
          <mxGeometry relative="1" as="geometry">
            <mxPoint x="710" y="735" as="sourcePoint" />
            <mxPoint x="560" y="720" as="targetPoint" />
          </mxGeometry>
        </mxCell>
        <mxCell id="perrteJ1TjG_YHbP8VM2-46" value="" style="ellipse;whiteSpace=wrap;html=1;align=center;aspect=fixed;fillColor=none;strokeColor=none;resizable=0;perimeter=centerPerimeter;rotatable=0;allowArrows=0;points=[];outlineConnect=1;" vertex="1" parent="1">
          <mxGeometry x="725" y="730" width="10" height="10" as="geometry" />
        </mxCell>
        <mxCell id="perrteJ1TjG_YHbP8VM2-47" value="" style="rounded=0;orthogonalLoop=1;jettySize=auto;html=1;endArrow=halfCircle;endFill=0;endSize=6;strokeWidth=1;sketch=0;exitX=0.5;exitY=0;exitDx=0;exitDy=0;" edge="1" parent="1" source="perrteJ1TjG_YHbP8VM2-28">
          <mxGeometry relative="1" as="geometry">
            <mxPoint x="570" y="735" as="sourcePoint" />
            <mxPoint x="440" y="600" as="targetPoint" />
            <Array as="points">
              <mxPoint x="320" y="600" />
            </Array>
          </mxGeometry>
        </mxCell>
        <mxCell id="perrteJ1TjG_YHbP8VM2-48" value="" style="rounded=0;orthogonalLoop=1;jettySize=auto;html=1;endArrow=oval;endFill=0;sketch=0;sourcePerimeterSpacing=0;targetPerimeterSpacing=0;endSize=10;exitX=0;exitY=0.5;exitDx=0;exitDy=0;" edge="1" parent="1" source="perrteJ1TjG_YHbP8VM2-37">
          <mxGeometry relative="1" as="geometry">
            <mxPoint x="530" y="735" as="sourcePoint" />
            <mxPoint x="440" y="600" as="targetPoint" />
          </mxGeometry>
        </mxCell>
        <mxCell id="perrteJ1TjG_YHbP8VM2-49" value="" style="ellipse;whiteSpace=wrap;html=1;align=center;aspect=fixed;fillColor=none;strokeColor=none;resizable=0;perimeter=centerPerimeter;rotatable=0;allowArrows=0;points=[];outlineConnect=1;" vertex="1" parent="1">
          <mxGeometry x="545" y="730" width="10" height="10" as="geometry" />
        </mxCell>
        <mxCell id="perrteJ1TjG_YHbP8VM2-50" value="" style="rounded=0;orthogonalLoop=1;jettySize=auto;html=1;endArrow=halfCircle;endFill=0;endSize=6;strokeWidth=1;sketch=0;exitX=1;exitY=0.5;exitDx=0;exitDy=0;" edge="1" parent="1" source="perrteJ1TjG_YHbP8VM2-2">
          <mxGeometry relative="1" as="geometry">
            <mxPoint x="240" y="520" as="sourcePoint" />
            <mxPoint x="240" y="640" as="targetPoint" />
            <Array as="points">
              <mxPoint x="440" y="280" />
              <mxPoint x="440" y="560" />
              <mxPoint x="240" y="560" />
            </Array>
          </mxGeometry>
        </mxCell>
        <mxCell id="perrteJ1TjG_YHbP8VM2-51" value="" style="rounded=0;orthogonalLoop=1;jettySize=auto;html=1;endArrow=oval;endFill=0;sketch=0;sourcePerimeterSpacing=0;targetPerimeterSpacing=0;endSize=10;exitX=0;exitY=0.473;exitDx=0;exitDy=0;exitPerimeter=0;" edge="1" parent="1" source="perrteJ1TjG_YHbP8VM2-22">
          <mxGeometry relative="1" as="geometry">
            <mxPoint x="530" y="735" as="sourcePoint" />
            <mxPoint x="240" y="640" as="targetPoint" />
          </mxGeometry>
        </mxCell>
        <mxCell id="perrteJ1TjG_YHbP8VM2-52" value="" style="ellipse;whiteSpace=wrap;html=1;align=center;aspect=fixed;fillColor=none;strokeColor=none;resizable=0;perimeter=centerPerimeter;rotatable=0;allowArrows=0;points=[];outlineConnect=1;" vertex="1" parent="1">
          <mxGeometry x="545" y="730" width="10" height="10" as="geometry" />
        </mxCell>
        <mxCell id="perrteJ1TjG_YHbP8VM2-53" value="" style="endArrow=none;html=1;rounded=0;entryX=0.5;entryY=1;entryDx=0;entryDy=0;" edge="1" parent="1" target="perrteJ1TjG_YHbP8VM2-17">
          <mxGeometry width="50" height="50" relative="1" as="geometry">
            <mxPoint x="440" y="400" as="sourcePoint" />
            <mxPoint x="650" y="330" as="targetPoint" />
            <Array as="points">
              <mxPoint x="640" y="400" />
              <mxPoint x="640" y="260" />
              <mxPoint x="795" y="260" />
            </Array>
          </mxGeometry>
        </mxCell>
        <mxCell id="perrteJ1TjG_YHbP8VM2-56" value="" style="rounded=0;orthogonalLoop=1;jettySize=auto;html=1;endArrow=halfCircle;endFill=0;endSize=6;strokeWidth=1;sketch=0;" edge="1" parent="1">
          <mxGeometry relative="1" as="geometry">
            <mxPoint x="980" y="330" as="sourcePoint" />
            <mxPoint x="860" y="600" as="targetPoint" />
            <Array as="points">
              <mxPoint x="980" y="600" />
            </Array>
          </mxGeometry>
        </mxCell>
        <mxCell id="perrteJ1TjG_YHbP8VM2-57" value="" style="rounded=0;orthogonalLoop=1;jettySize=auto;html=1;endArrow=oval;endFill=0;sketch=0;sourcePerimeterSpacing=0;targetPerimeterSpacing=0;endSize=10;" edge="1" parent="1">
          <mxGeometry relative="1" as="geometry">
            <mxPoint x="860" y="690" as="sourcePoint" />
            <mxPoint x="860" y="600" as="targetPoint" />
          </mxGeometry>
        </mxCell>
        <mxCell id="perrteJ1TjG_YHbP8VM2-58" value="" style="ellipse;whiteSpace=wrap;html=1;align=center;aspect=fixed;fillColor=none;strokeColor=none;resizable=0;perimeter=centerPerimeter;rotatable=0;allowArrows=0;points=[];outlineConnect=1;" vertex="1" parent="1">
          <mxGeometry x="625" y="550" width="10" height="10" as="geometry" />
        </mxCell>
      </root>
    </mxGraphModel>
  </diagram>
</mxfile>
